<mxfile host="app.diagrams.net" agent="Mozilla/5.0 (Macintosh; Intel Mac OS X 10_15_7) AppleWebKit/537.36 (KHTML, like Gecko) Chrome/132.0.0.0 Safari/537.36" version="26.0.11">
  <diagram name="Page-1" id="WKKi8QBmB9rFIO1yl8_U">
    <mxGraphModel dx="954" dy="639" grid="1" gridSize="10" guides="1" tooltips="1" connect="1" arrows="1" fold="1" page="1" pageScale="1" pageWidth="827" pageHeight="1169" math="0" shadow="0">
      <root>
        <mxCell id="0" />
        <mxCell id="1" parent="0" />
        <mxCell id="clWXnkM4pH4doEr0B8Ha-1" value="Browser" style="rounded=0;whiteSpace=wrap;html=1;" vertex="1" parent="1">
          <mxGeometry x="80" y="160" width="120" height="60" as="geometry" />
        </mxCell>
        <mxCell id="clWXnkM4pH4doEr0B8Ha-2" value="Server&lt;br&gt;(Flask)" style="rounded=0;whiteSpace=wrap;html=1;" vertex="1" parent="1">
          <mxGeometry x="320" y="160" width="120" height="60" as="geometry" />
        </mxCell>
        <mxCell id="clWXnkM4pH4doEr0B8Ha-3" value="" style="endArrow=classic;html=1;rounded=0;entryX=0;entryY=0.5;entryDx=0;entryDy=0;exitX=1;exitY=0.5;exitDx=0;exitDy=0;" edge="1" parent="1">
          <mxGeometry width="50" height="50" relative="1" as="geometry">
            <mxPoint x="200" y="189.5" as="sourcePoint" />
            <mxPoint x="320" y="189.5" as="targetPoint" />
          </mxGeometry>
        </mxCell>
        <mxCell id="clWXnkM4pH4doEr0B8Ha-8" value="http" style="edgeLabel;html=1;align=center;verticalAlign=middle;resizable=0;points=[];" vertex="1" connectable="0" parent="clWXnkM4pH4doEr0B8Ha-3">
          <mxGeometry x="0.05" y="10" relative="1" as="geometry">
            <mxPoint x="-5" y="7" as="offset" />
          </mxGeometry>
        </mxCell>
        <mxCell id="clWXnkM4pH4doEr0B8Ha-5" value="" style="endArrow=classic;html=1;rounded=0;entryX=0.5;entryY=0;entryDx=0;entryDy=0;entryPerimeter=0;exitX=0.5;exitY=1;exitDx=0;exitDy=0;" edge="1" parent="1" source="clWXnkM4pH4doEr0B8Ha-15" target="clWXnkM4pH4doEr0B8Ha-7">
          <mxGeometry width="50" height="50" relative="1" as="geometry">
            <mxPoint x="683" y="190" as="sourcePoint" />
            <mxPoint x="763" y="190" as="targetPoint" />
          </mxGeometry>
        </mxCell>
        <mxCell id="clWXnkM4pH4doEr0B8Ha-11" value="save/retrieve&lt;br&gt;file" style="edgeLabel;html=1;align=center;verticalAlign=middle;resizable=0;points=[];" vertex="1" connectable="0" parent="clWXnkM4pH4doEr0B8Ha-5">
          <mxGeometry x="0.0167" y="-4" relative="1" as="geometry">
            <mxPoint x="4" y="-5" as="offset" />
          </mxGeometry>
        </mxCell>
        <mxCell id="clWXnkM4pH4doEr0B8Ha-7" value="Database/&lt;br&gt;Post storage" style="shape=cylinder3;whiteSpace=wrap;html=1;boundedLbl=1;backgroundOutline=1;size=15;" vertex="1" parent="1">
          <mxGeometry x="580" y="270" width="80" height="80" as="geometry" />
        </mxCell>
        <mxCell id="clWXnkM4pH4doEr0B8Ha-9" value="Post Management" style="rounded=0;whiteSpace=wrap;html=1;" vertex="1" parent="1">
          <mxGeometry x="320" y="280" width="120" height="60" as="geometry" />
        </mxCell>
        <mxCell id="clWXnkM4pH4doEr0B8Ha-10" value="" style="endArrow=classic;html=1;rounded=0;exitX=0.5;exitY=1;exitDx=0;exitDy=0;entryX=0.5;entryY=0;entryDx=0;entryDy=0;" edge="1" parent="1" source="clWXnkM4pH4doEr0B8Ha-2" target="clWXnkM4pH4doEr0B8Ha-9">
          <mxGeometry width="50" height="50" relative="1" as="geometry">
            <mxPoint x="430" y="360" as="sourcePoint" />
            <mxPoint x="480" y="310" as="targetPoint" />
          </mxGeometry>
        </mxCell>
        <mxCell id="clWXnkM4pH4doEr0B8Ha-14" value="Process Request" style="edgeLabel;html=1;align=center;verticalAlign=middle;resizable=0;points=[];" vertex="1" connectable="0" parent="clWXnkM4pH4doEr0B8Ha-10">
          <mxGeometry x="-0.1" y="1" relative="1" as="geometry">
            <mxPoint as="offset" />
          </mxGeometry>
        </mxCell>
        <mxCell id="clWXnkM4pH4doEr0B8Ha-15" value="File Management" style="rounded=0;whiteSpace=wrap;html=1;" vertex="1" parent="1">
          <mxGeometry x="560" y="160" width="120" height="60" as="geometry" />
        </mxCell>
        <mxCell id="clWXnkM4pH4doEr0B8Ha-16" value="" style="endArrow=classic;html=1;rounded=0;exitX=1;exitY=0.5;exitDx=0;exitDy=0;entryX=0;entryY=0.5;entryDx=0;entryDy=0;" edge="1" parent="1" source="clWXnkM4pH4doEr0B8Ha-2" target="clWXnkM4pH4doEr0B8Ha-15">
          <mxGeometry width="50" height="50" relative="1" as="geometry">
            <mxPoint x="494" y="200" as="sourcePoint" />
            <mxPoint x="544" y="150" as="targetPoint" />
          </mxGeometry>
        </mxCell>
        <mxCell id="clWXnkM4pH4doEr0B8Ha-17" value="store data" style="edgeLabel;html=1;align=center;verticalAlign=middle;resizable=0;points=[];" vertex="1" connectable="0" parent="clWXnkM4pH4doEr0B8Ha-16">
          <mxGeometry x="0.0167" relative="1" as="geometry">
            <mxPoint as="offset" />
          </mxGeometry>
        </mxCell>
        <mxCell id="clWXnkM4pH4doEr0B8Ha-18" value="" style="endArrow=classic;html=1;rounded=0;exitX=1;exitY=0.5;exitDx=0;exitDy=0;entryX=0;entryY=0.5;entryDx=0;entryDy=0;entryPerimeter=0;" edge="1" parent="1" source="clWXnkM4pH4doEr0B8Ha-9" target="clWXnkM4pH4doEr0B8Ha-7">
          <mxGeometry width="50" height="50" relative="1" as="geometry">
            <mxPoint x="470" y="360" as="sourcePoint" />
            <mxPoint x="520" y="310" as="targetPoint" />
          </mxGeometry>
        </mxCell>
      </root>
    </mxGraphModel>
  </diagram>
</mxfile>
